HIERARCHY
ROOT Pelvis
{
	OFFSET 0.000000 0.000000 0.000000
	CHANNELS 6 Xposition Yposition Zposition Zrotation Yrotation Xrotation 
	JOINT Left_hip
	{
		OFFSET 0.069463 -0.088608 -0.009542
		CHANNELS 3 Zrotation Yrotation Xrotation
		JOINT Left_knee
		{
			OFFSET 0.030639 -0.359740 -0.005288
			CHANNELS 3 Zrotation Yrotation Xrotation
			JOINT Left_ankle
			{
				OFFSET -0.011068 -0.376034 -0.042462
				CHANNELS 3 Zrotation Yrotation Xrotation
				JOINT Left_foot
				{
					OFFSET 0.023192 -0.053321 0.111332
					CHANNELS 3 Zrotation Yrotation Xrotation
					End Site
					{
						OFFSET 0.000000 0.000000 0.000000
					}
				}
			}
		}
	}
	JOINT Right_hip
	{
		OFFSET -0.067438 -0.088025 -0.006263
		CHANNELS 3 Zrotation Yrotation Xrotation
		JOINT Right_knee
		{
			OFFSET -0.035962 -0.366229 -0.008063
			CHANNELS 3 Zrotation Yrotation Xrotation
			JOINT Right_ankle
			{
				OFFSET 0.013608 -0.375719 -0.040481
				CHANNELS 3 Zrotation Yrotation Xrotation
				JOINT Right_foot
				{
					OFFSET -0.021034 -0.045527 0.114617
					CHANNELS 3 Zrotation Yrotation Xrotation
					End Site
					{
						OFFSET 0.000000 0.000000 0.000000
					}
				}
			}
		}
	}
	JOINT Spine1
	{
		OFFSET -0.002610 0.101823 -0.019986
		CHANNELS 3 Zrotation Yrotation Xrotation
		JOINT Spine2
		{
			OFFSET 0.004114 0.128714 -0.000938
			CHANNELS 3 Zrotation Yrotation Xrotation
			JOINT Spine3
			{
				OFFSET 0.002191 0.048470 0.027684
				CHANNELS 3 Zrotation Yrotation Xrotation
				JOINT Neck
				{
					OFFSET -0.002856 0.198873 -0.044022
					CHANNELS 3 Zrotation Yrotation Xrotation
					JOINT Head
					{
						OFFSET 0.002981 0.062960 0.049860
						CHANNELS 3 Zrotation Yrotation Xrotation
						End Site
						{
							OFFSET 0.000000 0.000000 0.000000
						}
					}
				}
				JOINT Left_collar
				{
					OFFSET 0.073708 0.112550 -0.033440
					CHANNELS 3 Zrotation Yrotation Xrotation
					JOINT Left_shoulder
					{
						OFFSET 0.083291 0.030786 -0.008013
						CHANNELS 3 Zrotation Yrotation Xrotation
						JOINT Left_elbow
						{
							OFFSET 0.245601 -0.011792 -0.027873
							CHANNELS 3 Zrotation Yrotation Xrotation
							JOINT Left_wrist
							{
								OFFSET 0.232258 0.008622 -0.000487
								CHANNELS 3 Zrotation Yrotation Xrotation
								JOINT Left_palm
								{
									OFFSET 0.077300 -0.009457 -0.012851
									CHANNELS 3 Zrotation Yrotation Xrotation
									End Site
									{
										OFFSET 0.000000 0.000000 0.000000
									}
								}
							}
						}
					}
				}
				JOINT Right_collar
				{
					OFFSET -0.075339 0.110574 -0.037874
					CHANNELS 3 Zrotation Yrotation Xrotation
					JOINT Right_shoulder
					{
						OFFSET -0.086522 0.031207 -0.009986
						CHANNELS 3 Zrotation Yrotation Xrotation
						JOINT Right_elbow
						{
							OFFSET -0.237313 -0.011478 -0.019859
							CHANNELS 3 Zrotation Yrotation Xrotation
							JOINT Right_wrist
							{
								OFFSET -0.237599 0.007976 -0.003742
								CHANNELS 3 Zrotation Yrotation Xrotation
								JOINT Right_palm
								{
									OFFSET -0.076920 -0.006943 -0.009920
									CHANNELS 3 Zrotation Yrotation Xrotation
									End Site
									{
										OFFSET 0.000000 0.000000 0.000000
									}
								}
							}
						}
					}
				}
			}
		}
	}
}
MOTION
Frames: 11
Frame Time: 0.100000
0.113524 0.384578 -0.574138 174.418247 20.761698 -38.721957 6.495658 -2.524064 -44.096926 -6.607474 7.293217 68.734518 4.429243 4.821721 -0.178196 -6.943838 11.291940 -18.041581 -4.908924 -0.161300 -40.210619 -4.018221 -15.683892 71.471386 -11.165347 4.490686 -10.642893 24.933428 -28.793023 -7.953884 2.198231 -2.589359 44.379567 0.932448 -0.690435 -8.188588 2.434974 -2.327808 -2.689797 -6.915608 -16.341459 9.611031 4.851753 -2.641130 -11.483646 -24.531639 1.361196 5.626882 -57.195718 -5.024870 15.145741 111.753233 -72.133640 -90.396253 7.890286 -1.849692 -27.489666 -6.786916 1.762112 -4.708615 14.063356 6.445505 1.276730 57.931823 7.478836 18.363357 -135.031281 60.105368 -116.974488 -15.027850 -0.433660 -30.347030 4.648381 7.204771 1.138279 
0.114489 0.386539 -0.575130 174.383459 20.803461 -40.403508 6.344717 -3.008349 -42.438204 -6.102676 7.330636 67.578650 3.643439 4.191719 5.943024 -7.550973 9.910572 -18.289466 -4.735478 -0.250850 -38.553900 -3.977132 -15.833255 70.572162 -11.236925 6.046229 -6.023009 26.167889 -28.593623 -8.095173 2.062616 -2.341471 43.406739 1.366496 -0.754513 -7.711388 2.225847 -2.314615 -2.862046 -8.973632 -16.581645 11.793391 3.939168 -3.631390 -8.952457 -25.582168 2.221628 5.869573 -56.704904 -4.897153 15.345970 108.288725 -72.626082 -87.809966 8.201001 -1.774450 -26.909726 -8.291563 0.997038 -5.391462 17.011239 5.637464 2.077645 58.600030 6.509593 18.927127 -133.067908 59.922817 -115.152900 -16.515864 -0.477850 -28.670233 6.439751 7.738359 0.418385 
0.114629 0.388706 -0.577507 174.227360 20.825206 -41.860198 5.800303 -4.144052 -41.071136 -5.045814 7.262739 67.290749 4.449446 4.851194 6.860708 -8.101755 9.401443 -17.335554 -4.310288 -0.139302 -37.223502 -4.456248 -16.195445 69.779145 -11.205972 5.181784 -3.076097 25.879220 -27.546690 -7.252652 2.063152 -1.985540 43.079216 1.877024 -0.775234 -6.589375 2.364908 -2.248533 -3.039098 -9.784901 -16.912655 12.133901 3.357757 -4.166194 -7.976764 -26.872757 1.616376 6.387160 -56.795330 -5.077270 15.085741 105.543152 -72.270292 -85.390431 8.060804 -1.010063 -26.158919 -9.300659 -0.003266 -5.988145 19.352671 6.154773 2.913691 58.135686 5.848203 18.388232 -130.143740 58.624740 -112.430259 -16.821655 -0.796228 -27.103030 7.679046 8.300592 -0.460523 
0.115466 0.389470 -0.579228 174.053004 20.918284 -42.525845 5.472874 -5.298596 -40.466337 -4.564961 6.910358 66.979001 4.651774 5.522127 7.052633 -7.892011 9.169328 -16.699311 -3.730274 0.850268 -36.723050 -5.112498 -16.236958 69.223629 -11.639903 3.307457 -2.094759 25.592719 -26.992052 -6.527653 1.874001 -1.828524 43.005315 2.228103 -0.831627 -6.137810 2.482817 -2.246484 -3.139868 -9.463584 -16.977471 11.898281 3.489964 -4.416265 -7.518813 -27.518823 1.226726 6.901636 -56.502876 -4.923735 15.081198 105.392575 -72.167017 -85.107469 7.547391 -0.967026 -25.737426 -9.364785 -0.435676 -6.556098 20.590622 6.568155 3.360768 58.453628 5.230957 18.357206 -127.470667 57.680130 -109.745359 -16.662769 -0.963330 -26.639226 7.643379 8.353250 -0.853600 
0.115628 0.389609 -0.578948 173.988270 20.991246 -43.253089 5.331945 -5.153494 -39.609718 -4.470735 6.870001 66.922764 4.492506 5.378957 6.873897 -7.872497 9.377115 -16.409776 -3.188809 1.080962 -35.885098 -6.120961 -16.672425 69.217431 -12.444703 1.644060 -2.009577 25.872534 -26.645639 -6.280730 1.728911 -1.908080 43.453481 2.098401 -0.949631 -5.903740 2.437217 -2.324457 -3.264913 -9.048839 -17.125759 11.968885 3.849871 -4.393281 -7.298405 -27.788854 0.903457 7.276913 -56.033598 -4.873923 14.607644 105.329515 -72.019165 -84.821270 6.905119 -1.081224 -25.564673 -8.786817 -0.442636 -6.713383 20.736338 6.974868 3.461671 59.142432 4.868405 18.230665 -126.077609 57.312235 -108.325137 -16.318408 -1.100266 -26.624337 7.118229 8.257812 -0.621138 
0.114786 0.389880 -0.578275 173.893170 21.018286 -43.431400 5.403907 -4.867681 -39.479939 -4.612647 6.941457 67.092150 4.382141 5.231742 6.784281 -7.921252 9.416480 -16.498690 -3.249311 1.001862 -35.462794 -5.867782 -16.452751 69.156403 -12.576735 1.889136 -2.766736 26.040339 -26.750745 -6.298411 1.804767 -1.979632 43.488680 2.007684 -1.020007 -5.807529 2.384469 -2.338651 -3.350554 -9.065526 -17.175424 12.029434 3.824187 -4.333327 -7.217303 -27.928249 0.647195 7.200861 -56.092497 -5.037290 14.598099 104.862644 -71.750927 -84.392486 7.136953 -1.025410 -25.484428 -8.751864 -0.330984 -6.564814 20.589599 7.171075 3.418946 58.676331 5.044604 17.989417 -125.931470 57.405532 -108.261143 -16.342645 -1.111242 -26.538271 7.015447 8.203981 -0.487478 
0.114068 0.389563 -0.578090 173.891143 20.886463 -43.431012 5.538209 -4.508271 -39.382745 -4.793091 6.968470 67.203425 4.487273 5.130109 6.040776 -7.918824 9.550437 -16.469878 -3.602372 0.034450 -35.302153 -5.638089 -16.905216 69.317852 -12.052753 2.691378 -3.193051 25.500475 -26.671552 -6.202890 1.914741 -1.804940 43.416146 1.969293 -1.026613 -5.449217 2.407619 -2.203565 -3.400664 -9.075616 -17.206597 12.106016 3.864329 -4.745441 -7.119046 -27.664658 0.083853 7.132426 -56.376975 -5.366197 14.738903 105.300471 -71.693774 -84.823315 7.078412 -0.937270 -25.805961 -8.892471 -0.282062 -6.273147 20.316543 7.727481 3.490703 58.301659 5.667977 17.526572 -125.353033 57.639388 -107.922509 -16.257251 -1.177615 -26.358357 7.329899 8.325333 -0.555992 
0.114473 0.389699 -0.576683 173.998571 20.821544 -43.980919 5.835103 -3.885878 -38.678016 -4.866462 6.986972 68.603914 5.855792 6.353767 -0.610295 -8.202284 10.003954 -15.224510 -3.663275 -0.379580 -34.434426 -5.347309 -16.827269 69.325797 -11.403483 2.858346 -3.976374 25.428288 -26.690213 -5.933929 1.740418 -1.540794 43.953668 2.035331 -1.093763 -5.132267 2.490804 -2.100835 -3.426016 -8.824963 -16.975815 12.197345 3.468527 -5.216096 -6.864407 -27.871903 -0.532286 7.301032 -55.887406 -5.423102 14.360040 106.706862 -71.914878 -86.133894 7.135581 -1.003435 -25.823149 -8.809055 -0.356733 -5.893534 20.717178 8.435920 3.558325 58.103393 6.138409 17.508896 -125.611945 57.896212 -108.320602 -16.644367 -1.408324 -26.262072 7.854911 8.764653 -0.794133 
0.114570 0.390135 -0.576253 174.007634 21.047481 -44.303124 6.110026 -2.893082 -38.241682 -4.929081 7.465658 68.445704 4.976845 5.701850 0.199849 -7.819619 10.082671 -15.588523 -3.825715 -0.564733 -34.013574 -5.430280 -16.739910 69.554435 -11.901761 2.852905 -4.625770 25.938433 -26.743018 -6.272883 1.835929 -1.783804 44.048015 1.914454 -1.146232 -4.963131 2.371752 -2.157950 -3.583989 -9.444073 -16.941329 12.583396 2.991670 -5.375234 -6.401278 -28.108709 -0.689146 7.430647 -55.917642 -5.628760 14.252416 105.575485 -71.810605 -85.145963 7.249655 -1.139969 -25.663442 -8.617473 -0.219254 -5.761498 21.045125 8.743729 3.751618 58.567376 6.368451 17.831848 -125.849546 58.182108 -108.624703 -16.869340 -1.332488 -26.078084 7.670892 8.700823 -0.602994 
0.113773 0.389917 -0.576776 174.079461 21.355596 -44.188653 5.731286 -2.962060 -38.176653 -4.300336 8.115007 66.954666 4.246389 5.448285 5.950210 -7.406554 9.945493 -16.755841 -4.084339 -0.177624 -34.257431 -5.656184 -16.537321 69.885975 -13.080099 2.571908 -5.101227 26.653438 -27.059337 -6.575121 2.113457 -2.098989 43.515428 1.553289 -1.001962 -4.931846 2.007414 -2.128844 -3.635342 -10.180417 -17.189991 13.402635 2.998670 -5.233448 -5.876046 -28.325293 -0.702877 7.467494 -56.213835 -5.994451 14.780623 104.232553 -71.470857 -84.023637 7.362951 -0.939753 -25.194957 -8.849690 -0.009837 -6.172996 21.056410 8.796749 4.164599 59.282885 6.142973 18.176322 -125.428480 57.775809 -108.289126 -16.965662 -1.298344 -26.129282 7.252792 8.334135 -0.767168 
0.114252 0.389429 -0.575923 174.460219 21.660981 -44.165938 5.102396 -3.814423 -37.946238 -4.003649 7.964668 66.791926 5.109490 5.776483 5.993049 -8.378011 9.630900 -16.760860 -4.033532 0.611607 -34.330979 -6.403986 -16.128891 70.154190 -13.608950 2.305642 -5.181335 27.543884 -27.612049 -6.445438 1.801078 -1.959215 43.370196 0.994575 -0.804703 -5.986271 1.481257 -2.037021 -3.633700 -10.200140 -17.374729 15.363300 3.243539 -5.241169 -3.804127 -28.567677 -0.224296 7.491867 -55.910168 -6.117909 14.971080 104.274001 -71.479048 -83.840415 6.858236 -1.382203 -25.015487 -8.662164 0.270247 -6.093655 21.164849 8.362208 4.301200 60.505813 5.579241 18.560728 -124.017350 57.434753 -106.813964 -16.888308 -1.279058 -27.076502 6.749972 8.204400 -0.466762 
